<svg xmlns="http://www.w3.org/2000/svg" viewBox="0 0 83.5 86.6"><circle cx="41.7" cy="42.1" r=".7" fill="#1d1d1b"/><path d="M62.5 59.3l.4-.6 2 1.5 1.8-2.4-2-1.5.4-.6 4.5 3.3-.4.6-2-1.5-1.8 2.4 2 1.5-.4.6-4.5-3.3zM60.3 64.2c-.9-1-.8-2.1 0-2.9.8-.8 2-.7 2.9.2.9 1 .8 2.1 0 2.9-.8.8-2 .8-2.9-.2zm2.5-.2c.6-.5.5-1.3-.1-2-.7-.7-1.4-.7-2-.2s-.5 1.3.1 2c.7.7 1.5.7 2 .2zM57.6 63.7l.5-.4 3.3 4.6-.5.4-3.3-4.6zM53.5 66.2l.6-.3.4.7c-.1-.5.1-1.1.8-1.4 1.1-.6 2.1 0 2.6 1 .5.9.5 2.1-.6 2.7-.6.3-1.1.3-1.5 0l1.1 2-.6.3-2.8-5zm1.6 1.4c.4.7 1.1 1.1 1.8.7.8-.4.7-1.2.4-1.9-.4-.7-1-1.1-1.8-.7-.8.4-.8 1.3-.4 1.9zM48.3 70.9l-.8-2.7.6-.2.2.6c.2-.7.7-1 1.2-1.1.7-.2 1.3 0 1.6.8.3.9-.5 1.3-.9 1.5l-.7.3c-.4.2-.6.3-.5.7.1.4.5.5 1 .3.6-.2.9-.5.9-1l.6-.2c.1.8-.5 1.5-1.4 1.7-.9.4-1.5.2-1.8-.7zm1.1-1.2l.4-.2c.4-.2.8-.4.6-.9-.1-.5-.5-.5-.9-.4-.6.2-1.1.7-.9 1.5l.1.4c.2-.2.4-.3.7-.4zM43.3 71.5l-.3-2.7.7-.1.3 2.7c0 .4.4.8 1 .7.7-.1 1.1-.7 1-1.6l-.2-2.1.7-.1.4 4-.7.1-.1-.7c-.2.5-.5.8-1.2.9-.8.2-1.5-.2-1.6-1.1zM38.3 68.6h.6v.8c.2-.5.7-.8 1.4-.8 1.2.1 1.8 1.1 1.7 2.2-.1 1-.7 2.1-2 2-.7 0-1.1-.4-1.3-.8l-.1 2.3h-.7l.4-5.7zm.6 2.1c0 .8.3 1.5 1.2 1.5s1.3-.7 1.3-1.4c0-.8-.3-1.5-1.1-1.6-1 0-1.4.7-1.4 1.5zM30 69.4c.4-1.4 1.7-2.5 3.5-1.9l1.7.5-1.7 5.3-1.7-.5c-1.8-.5-2.3-2-1.8-3.4zm.7.2c-.3 1.1 0 2.2 1.3 2.7l1 .3 1.3-4.2-1-.3c-1.3-.4-2.3.5-2.6 1.5zM26.5 68.3l.2.1c.7.4 1.3.2 1.7-.6l.9-1.9.6.3-1.8 3.6-.6-.3.3-.6c-.4.3-.9.4-1.4.1l-.2-.1.3-.6zM23.2 65.5l1.6-2.3.5.4-.3.4c.6-.3 1.2-.1 1.6.2.6.4.8 1.1.4 1.7-.5.8-1.3.5-1.7.3l-.7-.3c-.4-.2-.7-.3-.9.1-.2.3-.1.7.4.9.5.4 1 .3 1.3 0l.6.4c-.6.6-1.4.6-2.2.1-.8-.5-1.1-1.2-.6-1.9zm1.7 0l.4.2c.4.2.8.4 1.1-.1.3-.4.1-.7-.3-1-.5-.4-1.3-.4-1.8.3l-.2.3c.3.1.4.1.8.3zM21.2 60.2c.9-.9 1.9-.8 2.6-.1.6.6 1 1.5.4 2.3l-.5-.5c.3-.4.3-.9-.3-1.4-.5-.5-1.1-.6-1.7.1l-.5.5c.6-.2 1.1 0 1.5.4.7.7.9 1.7 0 2.7-.9.9-2 .9-2.7.2-.4-.4-.6-.9-.5-1.5l-.4.5-.5-.4 2.6-2.8zm-.8 1.8c-.7.7-.6 1.4-.1 1.8.5.5 1.2.5 1.9-.2.6-.7.5-1.4 0-1.9-.5-.3-1.2-.4-1.8.3z"/><circle cx="41.9" cy="42.1" r="41.1" fill="none" stroke="#1d1d1b" stroke-width="1.5" stroke-miterlimit="10"/><g><path d="M21.4 24.9l-.4.6-2-1.5-1.8 2.4 2 1.5-.4.6-4.5-3.3.4-.6 2 1.5 1.8-2.4-2-1.5.4-.6 4.5 3.3zM23.6 20c.9 1 .8 2.1 0 2.9-.8.8-2 .7-2.9-.2-.9-1-.8-2.1 0-2.9.8-.8 2-.8 2.9.2zm-2.5.2c-.6.5-.5 1.3.1 2 .7.7 1.4.7 2 .2s.5-1.3-.1-2c-.7-.7-1.5-.7-2-.2zM26.3 20.5l-.5.4-3.3-4.6.5-.4 3.3 4.6zM30.4 18l-.6.3-.4-.7c.1.5-.1 1.1-.8 1.4-1.1.6-2.1 0-2.6-1-.5-.9-.5-2.1.6-2.7.6-.3 1.1-.3 1.5 0l-1.1-2 .6-.3 2.8 5zm-1.6-1.4c-.4-.7-1.1-1.1-1.8-.7-.8.4-.7 1.2-.4 1.9.4.7 1 1.1 1.8.7.8-.4.8-1.3.4-1.9zM35.6 13.3l.8 2.7-.6.2-.2-.6c-.2.7-.7 1-1.2 1.1-.7.2-1.3 0-1.6-.8-.3-.9.5-1.3.9-1.5l.7-.3c.4-.2.6-.3.5-.7-.1-.4-.5-.5-1-.3-.6.2-.9.5-.9 1l-.6.2c-.1-.8.5-1.5 1.4-1.7.9-.4 1.5-.2 1.8.7zm-1.1 1.2l-.4.2c-.4.2-.8.4-.6.9.1.5.5.5.9.4.6-.2 1.1-.7.9-1.5l-.1-.4c-.2.2-.4.3-.7.4zM40.6 12.7l.3 2.7-.7.1-.3-2.7c0-.4-.4-.8-1-.7-.7.1-1.1.7-1 1.6l.2 2.1-.7.1-.4-4 .7-.1.1.7c.2-.5.5-.8 1.2-.9.8-.2 1.5.2 1.6 1.1zM45.6 15.6H45v-.8c-.2.5-.7.8-1.4.8-1.2-.1-1.8-1.1-1.7-2.2.1-1 .7-2.1 2-2 .7 0 1.1.4 1.3.8l.1-2.3h.7l-.4 5.7zm-.6-2.1c0-.8-.3-1.5-1.2-1.5s-1.3.7-1.3 1.4c0 .8.3 1.5 1.1 1.6 1 0 1.4-.7 1.4-1.5zM53.9 14.8c-.4 1.4-1.7 2.5-3.5 1.9l-1.7-.5 1.7-5.3 1.7.5c1.8.5 2.3 2 1.8 3.4zm-.7-.2c.3-1.1 0-2.2-1.3-2.7l-1-.3-1.3 4.2 1 .3c1.3.4 2.3-.5 2.6-1.5zM57.4 15.9l-.2-.1c-.7-.4-1.3-.2-1.7.6l-.9 1.9-.6-.3 1.8-3.6.6.3-.3.6c.4-.3.9-.4 1.4-.1l.2.1-.3.6zM60.7 18.7L59.1 21l-.5-.4.3-.4c-.6.3-1.2.1-1.6-.2-.6-.4-.8-1.1-.4-1.7.5-.8 1.3-.5 1.7-.3l.7.3c.4.2.7.3.9-.1.2-.3.1-.7-.4-.9-.5-.4-1-.3-1.3 0l-.6-.4c.6-.6 1.4-.6 2.2-.1.8.5 1.1 1.2.6 1.9zm-1.7 0l-.4-.2c-.4-.2-.8-.4-1.1.1-.3.4-.1.7.3 1 .5.4 1.3.4 1.8-.3l.2-.3c-.3-.1-.4-.1-.8-.3zM62.7 24c-.9.9-1.9.8-2.6.1-.6-.6-1-1.5-.4-2.3l.5.5c-.3.4-.3.9.3 1.4.5.5 1.1.6 1.7-.1l.5-.5c-.6.2-1.1 0-1.5-.4-.7-.7-.9-1.7 0-2.7.9-.9 2-.9 2.7-.2.4.4.6.9.5 1.5l.4-.5.5.4-2.6 2.8zm.8-1.8c.7-.7.6-1.4.1-1.8-.5-.5-1.2-.5-1.9.2-.6.7-.5 1.4 0 1.9.5.3 1.2.4 1.8-.3z"/></g></svg>